<?xml version="1.0" standalone="no"?>
<!DOCTYPE svg PUBLIC "-//W3C//DTD SVG 20010904//EN"
 "http://www.w3.org/TR/2001/REC-SVG-20010904/DTD/svg10.dtd">
<svg version="1.0" xmlns="http://www.w3.org/2000/svg"
 width="1080.000000pt" height="1080.000000pt" viewBox="0 0 1080.000000 1080.000000"
 preserveAspectRatio="xMidYMid meet">
<metadata>
Created by potrace 1.14, written by Peter Selinger 2001-2017
</metadata>
<g transform="translate(0.000000,1080.000000) scale(0.100000,-0.100000)"
fill="#000000" stroke="none">
<path d="M4231 8484 c-480 -65 -944 -256 -1340 -551 -66 -49 -177 -147 -256
-227 -348 -349 -500 -700 -464 -1073 34 -364 231 -539 632 -560 l107 -6 0 25
c0 14 -11 50 -25 79 -93 205 -80 631 31 950 190 548 655 909 1306 1014 138 22
386 34 503 24 302 -25 506 -178 591 -444 54 -165 43 -406 -28 -620 -148 -446
-470 -747 -836 -781 -41 -4 -72 -3 -72 2 0 5 72 352 161 772 94 444 158 767
153 772 -10 10 -1004 -117 -1015 -129 -10 -11 -919 -4292 -913 -4302 3 -5 211
-9 497 -9 l493 0 269 1270 c171 806 274 1271 283 1275 32 12 193 26 242 20
216 -24 314 -128 340 -359 23 -198 -19 -428 -191 -1055 -135 -490 -165 -647
-157 -828 8 -174 66 -284 188 -359 169 -104 491 -102 904 4 l108 28 35 -32
c33 -30 109 -72 117 -63 2 2 22 72 45 154 95 338 249 768 394 1100 l74 170 66
-2 c129 -4 344 -59 520 -133 51 -22 77 -38 77 -49 0 -9 -88 -430 -195 -936
-107 -506 -191 -923 -187 -927 5 -5 179 -7 387 -6 l379 3 407 1910 c224 1050
405 1913 403 1917 -6 9 -117 44 -189 59 -33 7 -127 13 -210 13 -121 0 -167 -4
-236 -21 -257 -65 -533 -240 -822 -523 -235 -229 -457 -502 -675 -828 l-95
-143 -56 3 -56 3 -32 -147 c-17 -81 -61 -257 -97 -390 -151 -560 -182 -731
-158 -884 7 -43 23 -102 37 -131 13 -29 20 -53 15 -53 -22 0 -111 105 -138
162 -38 80 -52 148 -52 251 0 146 23 259 150 737 86 321 142 567 161 700 7 47
12 159 12 250 -1 179 -16 264 -68 378 -56 123 -158 217 -300 277 l-65 28 82
56 c242 165 467 459 557 726 67 200 78 423 32 605 -118 459 -567 769 -1213
839 -135 15 -491 12 -617 -5z m3183 -2321 c-2 -10 -67 -310 -143 -666 -76
-356 -140 -650 -143 -652 -2 -3 -72 17 -154 44 -82 27 -212 63 -289 81 -77 18
-141 34 -143 35 -11 9 189 369 305 548 161 249 349 470 493 578 71 54 80 57
74 32z"/>
<path d="M5756 3254 c-165 -43 -337 -72 -476 -80 l-110 -7 -9 -36 c-43 -161
-56 -270 -55 -451 0 -165 2 -191 22 -244 48 -128 116 -205 228 -258 98 -46
157 -58 312 -65 129 -5 142 -5 142 11 0 9 -7 27 -14 39 -47 71 -59 283 -31
517 16 127 70 406 104 538 10 39 18 72 18 71 -1 -1 -60 -16 -131 -35z"/>
</g>
</svg>
